<svg xmlns="http://www.w3.org/2000/svg" width="24" height="24" x="0" y="0" enable-background="new 0 0 32 32" version="1.1" viewBox="0 0 7.68 7.68" xml:space="preserve"><metadata/><path d="M5.9577,1.5349c-0.5567-0.5117-1.2988-0.82473-2.1127-0.82473-1.7231,0-3.125,1.4018-3.125,3.1248,0,1.7232,1.4019,3.125,3.125,3.125,0.86018,0,1.6402-0.34935,2.2058-0.91358l-0.6184-0.6184c-0.4072,0.4057-0.9685,0.657-1.5874,0.657-1.2406,0-2.25-1.0093-2.25-2.2499s1.0094-2.2499,2.25-2.2499c0.57275,0,1.0958,0.21543,1.4934,0.56905l-0.7434,0.7434h2.1249v-2.1249l-0.76233,0.76233z"/></svg>